<svg width="236" height="263" viewBox="0 0 236 263" fill="none" xmlns="http://www.w3.org/2000/svg">
<path d="M223.821 6.7417C225.531 6.7417 226.917 5.35139 226.917 3.63635C226.917 1.92132 225.531 0.531006 223.821 0.531006C222.112 0.531006 220.726 1.92132 220.726 3.63635C220.726 5.35139 222.112 6.7417 223.821 6.7417Z" fill="#BD932E"/>
<path d="M231.926 15.648C233.635 15.648 235.021 14.2576 235.021 12.5426C235.021 10.8276 233.635 9.43726 231.926 9.43726C230.216 9.43726 228.83 10.8276 228.83 12.5426C228.83 14.2576 230.216 15.648 231.926 15.648Z" fill="#BD932E"/>
<path d="M223.821 23.3899C225.531 23.3899 226.917 21.9996 226.917 20.2845C226.917 18.5695 225.531 17.1792 223.821 17.1792C222.112 17.1792 220.726 18.5695 220.726 20.2845C220.726 21.9996 222.112 23.3899 223.821 23.3899Z" fill="#BD932E"/>
<path d="M231.926 32.2746C233.635 32.2746 235.021 30.8843 235.021 29.1693C235.021 27.4543 233.635 26.064 231.926 26.064C230.216 26.064 228.83 27.4543 228.83 29.1693C228.83 30.8843 230.216 32.2746 231.926 32.2746Z" fill="#BD932E"/>
<path d="M223.821 40.0164C225.531 40.0164 226.917 38.6261 226.917 36.911C226.917 35.196 225.531 33.8057 223.821 33.8057C222.112 33.8057 220.726 35.196 220.726 36.911C220.726 38.6261 222.112 40.0164 223.821 40.0164Z" fill="#BD932E"/>
<path d="M231.926 48.9226C233.635 48.9226 235.021 47.5323 235.021 45.8173C235.021 44.1022 233.635 42.7119 231.926 42.7119C230.216 42.7119 228.83 44.1022 228.83 45.8173C228.83 47.5323 230.216 48.9226 231.926 48.9226Z" fill="#BD932E"/>
<path d="M223.821 56.6646C225.531 56.6646 226.917 55.2742 226.917 53.5592C226.917 51.8442 225.531 50.4539 223.821 50.4539C222.112 50.4539 220.726 51.8442 220.726 53.5592C220.726 55.2742 222.112 56.6646 223.821 56.6646Z" fill="#BD932E"/>
<path d="M231.926 65.5493C233.635 65.5493 235.021 64.159 235.021 62.444C235.021 60.7289 233.635 59.3386 231.926 59.3386C230.216 59.3386 228.83 60.7289 228.83 62.444C228.83 64.159 230.216 65.5493 231.926 65.5493Z" fill="#BD932E"/>
<path d="M223.821 73.291C225.531 73.291 226.917 71.9007 226.917 70.1857C226.917 68.4706 225.531 67.0803 223.821 67.0803C222.112 67.0803 220.726 68.4706 220.726 70.1857C220.726 71.9007 222.112 73.291 223.821 73.291Z" fill="#BD932E"/>
<path d="M231.926 82.1973C233.635 82.1973 235.021 80.807 235.021 79.0919C235.021 77.3769 233.635 75.9866 231.926 75.9866C230.216 75.9866 228.83 77.3769 228.83 79.0919C228.83 80.807 230.216 82.1973 231.926 82.1973Z" fill="#BD932E"/>
<path d="M223.821 89.9392C225.531 89.9392 226.917 88.5489 226.917 86.8339C226.917 85.1188 225.531 83.7285 223.821 83.7285C222.112 83.7285 220.726 85.1188 220.726 86.8339C220.726 88.5489 222.112 89.9392 223.821 89.9392Z" fill="#BD932E"/>
<path d="M231.926 98.824C233.635 98.824 235.021 97.4337 235.021 95.7186C235.021 94.0036 233.635 92.6133 231.926 92.6133C230.216 92.6133 228.83 94.0036 228.83 95.7186C228.83 97.4337 230.216 98.824 231.926 98.824Z" fill="#BD932E"/>
<path d="M223.821 106.566C225.531 106.566 226.917 105.175 226.917 103.46C226.917 101.745 225.531 100.355 223.821 100.355C222.112 100.355 220.726 101.745 220.726 103.46C220.726 105.175 222.112 106.566 223.821 106.566Z" fill="#BD932E"/>
<path d="M231.926 115.472C233.635 115.472 235.021 114.082 235.021 112.367C235.021 110.652 233.635 109.261 231.926 109.261C230.216 109.261 228.83 110.652 228.83 112.367C228.83 114.082 230.216 115.472 231.926 115.472Z" fill="#BD932E"/>
<path d="M223.821 123.192C225.531 123.192 226.917 121.802 226.917 120.087C226.917 118.372 225.531 116.982 223.821 116.982C222.112 116.982 220.726 118.372 220.726 120.087C220.726 121.802 222.112 123.192 223.821 123.192Z" fill="#BD932E"/>
<path d="M231.926 132.099C233.635 132.099 235.021 130.708 235.021 128.993C235.021 127.278 233.635 125.888 231.926 125.888C230.216 125.888 228.83 127.278 228.83 128.993C228.83 130.708 230.216 132.099 231.926 132.099Z" fill="#BD932E"/>
<path d="M223.821 139.84C225.531 139.84 226.917 138.45 226.917 136.735C226.917 135.02 225.531 133.63 223.821 133.63C222.112 133.63 220.726 135.02 220.726 136.735C220.726 138.45 222.112 139.84 223.821 139.84Z" fill="#BD932E"/>
<path d="M231.926 148.725C233.635 148.725 235.021 147.335 235.021 145.62C235.021 143.905 233.635 142.514 231.926 142.514C230.216 142.514 228.83 143.905 228.83 145.62C228.83 147.335 230.216 148.725 231.926 148.725Z" fill="#BD932E"/>
<path d="M223.821 156.467C225.531 156.467 226.917 155.077 226.917 153.362C226.917 151.647 225.531 150.256 223.821 150.256C222.112 150.256 220.726 151.647 220.726 153.362C220.726 155.077 222.112 156.467 223.821 156.467Z" fill="#BD932E"/>
<path d="M231.926 165.373C233.635 165.373 235.021 163.983 235.021 162.268C235.021 160.553 233.635 159.163 231.926 159.163C230.216 159.163 228.83 160.553 228.83 162.268C228.83 163.983 230.216 165.373 231.926 165.373Z" fill="#BD932E"/>
<path d="M223.821 173.115C225.531 173.115 226.917 171.725 226.917 170.01C226.917 168.295 225.531 166.905 223.821 166.905C222.112 166.905 220.726 168.295 220.726 170.01C220.726 171.725 222.112 173.115 223.821 173.115Z" fill="#BD932E"/>
<path d="M231.926 182C233.635 182 235.021 180.61 235.021 178.895C235.021 177.18 233.635 175.789 231.926 175.789C230.216 175.789 228.83 177.18 228.83 178.895C228.83 180.61 230.216 182 231.926 182Z" fill="#BD932E"/>
<path d="M207.247 6.7417C208.957 6.7417 210.343 5.35139 210.343 3.63635C210.343 1.92132 208.957 0.531006 207.247 0.531006C205.537 0.531006 204.151 1.92132 204.151 3.63635C204.151 5.35139 205.537 6.7417 207.247 6.7417Z" fill="#BD932E"/>
<path d="M215.33 15.648C217.04 15.648 218.426 14.2576 218.426 12.5426C218.426 10.8276 217.04 9.43726 215.33 9.43726C213.62 9.43726 212.234 10.8276 212.234 12.5426C212.234 14.2576 213.62 15.648 215.33 15.648Z" fill="#BD932E"/>
<path d="M207.247 23.3899C208.957 23.3899 210.343 21.9996 210.343 20.2845C210.343 18.5695 208.957 17.1792 207.247 17.1792C205.537 17.1792 204.151 18.5695 204.151 20.2845C204.151 21.9996 205.537 23.3899 207.247 23.3899Z" fill="#BD932E"/>
<path d="M215.33 32.2746C217.04 32.2746 218.426 30.8843 218.426 29.1693C218.426 27.4543 217.04 26.064 215.33 26.064C213.62 26.064 212.234 27.4543 212.234 29.1693C212.234 30.8843 213.62 32.2746 215.33 32.2746Z" fill="#BD932E"/>
<path d="M207.247 40.0164C208.957 40.0164 210.343 38.6261 210.343 36.911C210.343 35.196 208.957 33.8057 207.247 33.8057C205.537 33.8057 204.151 35.196 204.151 36.911C204.151 38.6261 205.537 40.0164 207.247 40.0164Z" fill="#BD932E"/>
<path d="M215.33 48.9226C217.04 48.9226 218.426 47.5323 218.426 45.8173C218.426 44.1022 217.04 42.7119 215.33 42.7119C213.62 42.7119 212.234 44.1022 212.234 45.8173C212.234 47.5323 213.62 48.9226 215.33 48.9226Z" fill="#BD932E"/>
<path d="M207.247 56.6646C208.957 56.6646 210.343 55.2742 210.343 53.5592C210.343 51.8442 208.957 50.4539 207.247 50.4539C205.537 50.4539 204.151 51.8442 204.151 53.5592C204.151 55.2742 205.537 56.6646 207.247 56.6646Z" fill="#BD932E"/>
<path d="M215.33 65.5493C217.04 65.5493 218.426 64.159 218.426 62.444C218.426 60.7289 217.04 59.3386 215.33 59.3386C213.62 59.3386 212.234 60.7289 212.234 62.444C212.234 64.159 213.62 65.5493 215.33 65.5493Z" fill="#BD932E"/>
<path d="M207.247 73.291C208.957 73.291 210.343 71.9007 210.343 70.1857C210.343 68.4706 208.957 67.0803 207.247 67.0803C205.537 67.0803 204.151 68.4706 204.151 70.1857C204.151 71.9007 205.537 73.291 207.247 73.291Z" fill="#BD932E"/>
<path d="M215.33 82.1973C217.04 82.1973 218.426 80.807 218.426 79.0919C218.426 77.3769 217.04 75.9866 215.33 75.9866C213.62 75.9866 212.234 77.3769 212.234 79.0919C212.234 80.807 213.62 82.1973 215.33 82.1973Z" fill="#BD932E"/>
<path d="M207.247 89.9392C208.957 89.9392 210.343 88.5489 210.343 86.8339C210.343 85.1188 208.957 83.7285 207.247 83.7285C205.537 83.7285 204.151 85.1188 204.151 86.8339C204.151 88.5489 205.537 89.9392 207.247 89.9392Z" fill="#BD932E"/>
<path d="M215.33 98.824C217.04 98.824 218.426 97.4337 218.426 95.7186C218.426 94.0036 217.04 92.6133 215.33 92.6133C213.62 92.6133 212.234 94.0036 212.234 95.7186C212.234 97.4337 213.62 98.824 215.33 98.824Z" fill="#BD932E"/>
<path d="M207.247 106.566C208.957 106.566 210.343 105.175 210.343 103.46C210.343 101.745 208.957 100.355 207.247 100.355C205.537 100.355 204.151 101.745 204.151 103.46C204.151 105.175 205.537 106.566 207.247 106.566Z" fill="#BD932E"/>
<path d="M215.33 115.472C217.04 115.472 218.426 114.082 218.426 112.367C218.426 110.652 217.04 109.261 215.33 109.261C213.62 109.261 212.234 110.652 212.234 112.367C212.234 114.082 213.62 115.472 215.33 115.472Z" fill="#BD932E"/>
<path d="M207.247 123.192C208.957 123.192 210.343 121.802 210.343 120.087C210.343 118.372 208.957 116.982 207.247 116.982C205.537 116.982 204.151 118.372 204.151 120.087C204.151 121.802 205.537 123.192 207.247 123.192Z" fill="#BD932E"/>
<path d="M215.33 132.099C217.04 132.099 218.426 130.708 218.426 128.993C218.426 127.278 217.04 125.888 215.33 125.888C213.62 125.888 212.234 127.278 212.234 128.993C212.234 130.708 213.62 132.099 215.33 132.099Z" fill="#BD932E"/>
<path d="M207.247 139.84C208.957 139.84 210.343 138.45 210.343 136.735C210.343 135.02 208.957 133.63 207.247 133.63C205.537 133.63 204.151 135.02 204.151 136.735C204.151 138.45 205.537 139.84 207.247 139.84Z" fill="#BD932E"/>
<path d="M215.33 148.725C217.04 148.725 218.426 147.335 218.426 145.62C218.426 143.905 217.04 142.514 215.33 142.514C213.62 142.514 212.234 143.905 212.234 145.62C212.234 147.335 213.62 148.725 215.33 148.725Z" fill="#BD932E"/>
<path d="M207.247 156.467C208.957 156.467 210.343 155.077 210.343 153.362C210.343 151.647 208.957 150.256 207.247 150.256C205.537 150.256 204.151 151.647 204.151 153.362C204.151 155.077 205.537 156.467 207.247 156.467Z" fill="#BD932E"/>
<path d="M215.33 165.373C217.04 165.373 218.426 163.983 218.426 162.268C218.426 160.553 217.04 159.163 215.33 159.163C213.62 159.163 212.234 160.553 212.234 162.268C212.234 163.983 213.62 165.373 215.33 165.373Z" fill="#BD932E"/>
<path d="M207.247 173.115C208.957 173.115 210.343 171.725 210.343 170.01C210.343 168.295 208.957 166.905 207.247 166.905C205.537 166.905 204.151 168.295 204.151 170.01C204.151 171.725 205.537 173.115 207.247 173.115Z" fill="#BD932E"/>
<path d="M215.33 182C217.04 182 218.426 180.61 218.426 178.895C218.426 177.18 217.04 175.789 215.33 175.789C213.62 175.789 212.234 177.18 212.234 178.895C212.234 180.61 213.62 182 215.33 182Z" fill="#BD932E"/>
<path d="M190.65 6.7417C192.36 6.7417 193.746 5.35139 193.746 3.63635C193.746 1.92132 192.36 0.531006 190.65 0.531006C188.941 0.531006 187.555 1.92132 187.555 3.63635C187.555 5.35139 188.941 6.7417 190.65 6.7417Z" fill="#BD932E"/>
<path d="M198.755 15.648C200.464 15.648 201.85 14.2576 201.85 12.5426C201.85 10.8276 200.464 9.43726 198.755 9.43726C197.045 9.43726 195.659 10.8276 195.659 12.5426C195.659 14.2576 197.045 15.648 198.755 15.648Z" fill="#BD932E"/>
<path d="M190.65 23.3899C192.36 23.3899 193.746 21.9996 193.746 20.2845C193.746 18.5695 192.36 17.1792 190.65 17.1792C188.941 17.1792 187.555 18.5695 187.555 20.2845C187.555 21.9996 188.941 23.3899 190.65 23.3899Z" fill="#BD932E"/>
<path d="M198.755 32.2746C200.464 32.2746 201.85 30.8843 201.85 29.1693C201.85 27.4543 200.464 26.064 198.755 26.064C197.045 26.064 195.659 27.4543 195.659 29.1693C195.659 30.8843 197.045 32.2746 198.755 32.2746Z" fill="#BD932E"/>
<path d="M190.65 40.0164C192.36 40.0164 193.746 38.6261 193.746 36.911C193.746 35.196 192.36 33.8057 190.65 33.8057C188.941 33.8057 187.555 35.196 187.555 36.911C187.555 38.6261 188.941 40.0164 190.65 40.0164Z" fill="#BD932E"/>
<path d="M198.755 48.9226C200.464 48.9226 201.85 47.5323 201.85 45.8173C201.85 44.1022 200.464 42.7119 198.755 42.7119C197.045 42.7119 195.659 44.1022 195.659 45.8173C195.659 47.5323 197.045 48.9226 198.755 48.9226Z" fill="#BD932E"/>
<path d="M190.65 56.6646C192.36 56.6646 193.746 55.2742 193.746 53.5592C193.746 51.8442 192.36 50.4539 190.65 50.4539C188.941 50.4539 187.555 51.8442 187.555 53.5592C187.555 55.2742 188.941 56.6646 190.65 56.6646Z" fill="#BD932E"/>
<path d="M198.755 65.5493C200.464 65.5493 201.85 64.159 201.85 62.444C201.85 60.7289 200.464 59.3386 198.755 59.3386C197.045 59.3386 195.659 60.7289 195.659 62.444C195.659 64.159 197.045 65.5493 198.755 65.5493Z" fill="#BD932E"/>
<path d="M190.65 73.291C192.36 73.291 193.746 71.9007 193.746 70.1857C193.746 68.4706 192.36 67.0803 190.65 67.0803C188.941 67.0803 187.555 68.4706 187.555 70.1857C187.555 71.9007 188.941 73.291 190.65 73.291Z" fill="#BD932E"/>
<path d="M198.755 82.1973C200.464 82.1973 201.85 80.807 201.85 79.0919C201.85 77.3769 200.464 75.9866 198.755 75.9866C197.045 75.9866 195.659 77.3769 195.659 79.0919C195.659 80.807 197.045 82.1973 198.755 82.1973Z" fill="#BD932E"/>
<path d="M190.65 89.9392C192.36 89.9392 193.746 88.5489 193.746 86.8339C193.746 85.1188 192.36 83.7285 190.65 83.7285C188.941 83.7285 187.555 85.1188 187.555 86.8339C187.555 88.5489 188.941 89.9392 190.65 89.9392Z" fill="#BD932E"/>
<path d="M198.755 98.824C200.464 98.824 201.85 97.4337 201.85 95.7186C201.85 94.0036 200.464 92.6133 198.755 92.6133C197.045 92.6133 195.659 94.0036 195.659 95.7186C195.659 97.4337 197.045 98.824 198.755 98.824Z" fill="#BD932E"/>
<path d="M190.65 106.566C192.36 106.566 193.746 105.175 193.746 103.46C193.746 101.745 192.36 100.355 190.65 100.355C188.941 100.355 187.555 101.745 187.555 103.46C187.555 105.175 188.941 106.566 190.65 106.566Z" fill="#BD932E"/>
<path d="M198.755 115.472C200.464 115.472 201.85 114.082 201.85 112.367C201.85 110.652 200.464 109.261 198.755 109.261C197.045 109.261 195.659 110.652 195.659 112.367C195.659 114.082 197.045 115.472 198.755 115.472Z" fill="#BD932E"/>
<path d="M190.65 123.192C192.36 123.192 193.746 121.802 193.746 120.087C193.746 118.372 192.36 116.982 190.65 116.982C188.941 116.982 187.555 118.372 187.555 120.087C187.555 121.802 188.941 123.192 190.65 123.192Z" fill="#BD932E"/>
<path d="M198.755 132.099C200.464 132.099 201.85 130.708 201.85 128.993C201.85 127.278 200.464 125.888 198.755 125.888C197.045 125.888 195.659 127.278 195.659 128.993C195.659 130.708 197.045 132.099 198.755 132.099Z" fill="#BD932E"/>
<path d="M190.65 139.84C192.36 139.84 193.746 138.45 193.746 136.735C193.746 135.02 192.36 133.63 190.65 133.63C188.941 133.63 187.555 135.02 187.555 136.735C187.555 138.45 188.941 139.84 190.65 139.84Z" fill="#BD932E"/>
<path d="M198.755 148.725C200.464 148.725 201.85 147.335 201.85 145.62C201.85 143.905 200.464 142.514 198.755 142.514C197.045 142.514 195.659 143.905 195.659 145.62C195.659 147.335 197.045 148.725 198.755 148.725Z" fill="#BD932E"/>
<path d="M190.65 156.467C192.36 156.467 193.746 155.077 193.746 153.362C193.746 151.647 192.36 150.256 190.65 150.256C188.941 150.256 187.555 151.647 187.555 153.362C187.555 155.077 188.941 156.467 190.65 156.467Z" fill="#BD932E"/>
<path d="M198.755 165.373C200.464 165.373 201.85 163.983 201.85 162.268C201.85 160.553 200.464 159.163 198.755 159.163C197.045 159.163 195.659 160.553 195.659 162.268C195.659 163.983 197.045 165.373 198.755 165.373Z" fill="#BD932E"/>
<path d="M190.65 173.115C192.36 173.115 193.746 171.725 193.746 170.01C193.746 168.295 192.36 166.905 190.65 166.905C188.941 166.905 187.555 168.295 187.555 170.01C187.555 171.725 188.941 173.115 190.65 173.115Z" fill="#BD932E"/>
<path d="M198.755 182C200.464 182 201.85 180.61 201.85 178.895C201.85 177.18 200.464 175.789 198.755 175.789C197.045 175.789 195.659 177.18 195.659 178.895C195.659 180.61 197.045 182 198.755 182Z" fill="#BD932E"/>
<path d="M174.076 6.7417C175.786 6.7417 177.172 5.35139 177.172 3.63635C177.172 1.92132 175.786 0.531006 174.076 0.531006C172.366 0.531006 170.98 1.92132 170.98 3.63635C170.98 5.35139 172.366 6.7417 174.076 6.7417Z" fill="#BD932E"/>
<path d="M182.159 15.648C183.869 15.648 185.255 14.2576 185.255 12.5426C185.255 10.8276 183.869 9.43726 182.159 9.43726C180.449 9.43726 179.063 10.8276 179.063 12.5426C179.063 14.2576 180.449 15.648 182.159 15.648Z" fill="#BD932E"/>
<path d="M174.076 23.3899C175.786 23.3899 177.172 21.9996 177.172 20.2845C177.172 18.5695 175.786 17.1792 174.076 17.1792C172.366 17.1792 170.98 18.5695 170.98 20.2845C170.98 21.9996 172.366 23.3899 174.076 23.3899Z" fill="#BD932E"/>
<path d="M182.159 32.2746C183.869 32.2746 185.255 30.8843 185.255 29.1693C185.255 27.4543 183.869 26.064 182.159 26.064C180.449 26.064 179.063 27.4543 179.063 29.1693C179.063 30.8843 180.449 32.2746 182.159 32.2746Z" fill="#BD932E"/>
<path d="M174.076 40.0164C175.786 40.0164 177.172 38.6261 177.172 36.911C177.172 35.196 175.786 33.8057 174.076 33.8057C172.366 33.8057 170.98 35.196 170.98 36.911C170.98 38.6261 172.366 40.0164 174.076 40.0164Z" fill="#BD932E"/>
<path d="M182.159 48.9226C183.869 48.9226 185.255 47.5323 185.255 45.8173C185.255 44.1022 183.869 42.7119 182.159 42.7119C180.449 42.7119 179.063 44.1022 179.063 45.8173C179.063 47.5323 180.449 48.9226 182.159 48.9226Z" fill="#BD932E"/>
<path d="M174.076 56.6646C175.786 56.6646 177.172 55.2742 177.172 53.5592C177.172 51.8442 175.786 50.4539 174.076 50.4539C172.366 50.4539 170.98 51.8442 170.98 53.5592C170.98 55.2742 172.366 56.6646 174.076 56.6646Z" fill="#BD932E"/>
<path d="M182.159 65.5493C183.869 65.5493 185.255 64.159 185.255 62.444C185.255 60.7289 183.869 59.3386 182.159 59.3386C180.449 59.3386 179.063 60.7289 179.063 62.444C179.063 64.159 180.449 65.5493 182.159 65.5493Z" fill="#BD932E"/>
<path d="M174.076 73.291C175.786 73.291 177.172 71.9007 177.172 70.1857C177.172 68.4706 175.786 67.0803 174.076 67.0803C172.366 67.0803 170.98 68.4706 170.98 70.1857C170.98 71.9007 172.366 73.291 174.076 73.291Z" fill="#BD932E"/>
<path d="M182.159 82.1973C183.869 82.1973 185.255 80.807 185.255 79.0919C185.255 77.3769 183.869 75.9866 182.159 75.9866C180.449 75.9866 179.063 77.3769 179.063 79.0919C179.063 80.807 180.449 82.1973 182.159 82.1973Z" fill="#BD932E"/>
<path d="M174.076 89.9392C175.786 89.9392 177.172 88.5489 177.172 86.8339C177.172 85.1188 175.786 83.7285 174.076 83.7285C172.366 83.7285 170.98 85.1188 170.98 86.8339C170.98 88.5489 172.366 89.9392 174.076 89.9392Z" fill="#BD932E"/>
<path d="M182.159 98.824C183.869 98.824 185.255 97.4337 185.255 95.7186C185.255 94.0036 183.869 92.6133 182.159 92.6133C180.449 92.6133 179.063 94.0036 179.063 95.7186C179.063 97.4337 180.449 98.824 182.159 98.824Z" fill="#BD932E"/>
<path d="M174.076 106.566C175.786 106.566 177.172 105.175 177.172 103.46C177.172 101.745 175.786 100.355 174.076 100.355C172.366 100.355 170.98 101.745 170.98 103.46C170.98 105.175 172.366 106.566 174.076 106.566Z" fill="#BD932E"/>
<path d="M182.159 115.472C183.869 115.472 185.255 114.082 185.255 112.367C185.255 110.652 183.869 109.261 182.159 109.261C180.449 109.261 179.063 110.652 179.063 112.367C179.063 114.082 180.449 115.472 182.159 115.472Z" fill="#BD932E"/>
<path d="M174.076 123.192C175.786 123.192 177.172 121.802 177.172 120.087C177.172 118.372 175.786 116.982 174.076 116.982C172.366 116.982 170.98 118.372 170.98 120.087C170.98 121.802 172.366 123.192 174.076 123.192Z" fill="#BD932E"/>
<path d="M182.159 132.099C183.869 132.099 185.255 130.708 185.255 128.993C185.255 127.278 183.869 125.888 182.159 125.888C180.449 125.888 179.063 127.278 179.063 128.993C179.063 130.708 180.449 132.099 182.159 132.099Z" fill="#BD932E"/>
<path d="M174.076 139.84C175.786 139.84 177.172 138.45 177.172 136.735C177.172 135.02 175.786 133.63 174.076 133.63C172.366 133.63 170.98 135.02 170.98 136.735C170.98 138.45 172.366 139.84 174.076 139.84Z" fill="#BD932E"/>
<path d="M182.159 148.725C183.869 148.725 185.255 147.335 185.255 145.62C185.255 143.905 183.869 142.514 182.159 142.514C180.449 142.514 179.063 143.905 179.063 145.62C179.063 147.335 180.449 148.725 182.159 148.725Z" fill="#BD932E"/>
<path d="M174.076 156.467C175.786 156.467 177.172 155.077 177.172 153.362C177.172 151.647 175.786 150.256 174.076 150.256C172.366 150.256 170.98 151.647 170.98 153.362C170.98 155.077 172.366 156.467 174.076 156.467Z" fill="#BD932E"/>
<path d="M182.159 165.373C183.869 165.373 185.255 163.983 185.255 162.268C185.255 160.553 183.869 159.163 182.159 159.163C180.449 159.163 179.063 160.553 179.063 162.268C179.063 163.983 180.449 165.373 182.159 165.373Z" fill="#BD932E"/>
<path d="M174.076 173.115C175.786 173.115 177.172 171.725 177.172 170.01C177.172 168.295 175.786 166.905 174.076 166.905C172.366 166.905 170.98 168.295 170.98 170.01C170.98 171.725 172.366 173.115 174.076 173.115Z" fill="#BD932E"/>
<path d="M182.159 182C183.869 182 185.255 180.61 185.255 178.895C185.255 177.18 183.869 175.789 182.159 175.789C180.449 175.789 179.063 177.18 179.063 178.895C179.063 180.61 180.449 182 182.159 182Z" fill="#BD932E"/>
<path d="M157.48 6.7417C159.19 6.7417 160.576 5.35139 160.576 3.63635C160.576 1.92132 159.19 0.531006 157.48 0.531006C155.771 0.531006 154.385 1.92132 154.385 3.63635C154.385 5.35139 155.771 6.7417 157.48 6.7417Z" fill="#BD932E"/>
<path d="M165.585 15.648C167.295 15.648 168.68 14.2576 168.68 12.5426C168.68 10.8276 167.295 9.43726 165.585 9.43726C163.875 9.43726 162.489 10.8276 162.489 12.5426C162.489 14.2576 163.875 15.648 165.585 15.648Z" fill="#BD932E"/>
<path d="M157.48 23.3899C159.19 23.3899 160.576 21.9996 160.576 20.2845C160.576 18.5695 159.19 17.1792 157.48 17.1792C155.771 17.1792 154.385 18.5695 154.385 20.2845C154.385 21.9996 155.771 23.3899 157.48 23.3899Z" fill="#BD932E"/>
<path d="M165.585 32.2746C167.295 32.2746 168.68 30.8843 168.68 29.1693C168.68 27.4543 167.295 26.064 165.585 26.064C163.875 26.064 162.489 27.4543 162.489 29.1693C162.489 30.8843 163.875 32.2746 165.585 32.2746Z" fill="#BD932E"/>
<path d="M157.48 40.0164C159.19 40.0164 160.576 38.6261 160.576 36.911C160.576 35.196 159.19 33.8057 157.48 33.8057C155.771 33.8057 154.385 35.196 154.385 36.911C154.385 38.6261 155.771 40.0164 157.48 40.0164Z" fill="#BD932E"/>
<path d="M165.585 48.9226C167.295 48.9226 168.68 47.5323 168.68 45.8173C168.68 44.1022 167.295 42.7119 165.585 42.7119C163.875 42.7119 162.489 44.1022 162.489 45.8173C162.489 47.5323 163.875 48.9226 165.585 48.9226Z" fill="#BD932E"/>
<path d="M157.48 56.6646C159.19 56.6646 160.576 55.2742 160.576 53.5592C160.576 51.8442 159.19 50.4539 157.48 50.4539C155.771 50.4539 154.385 51.8442 154.385 53.5592C154.385 55.2742 155.771 56.6646 157.48 56.6646Z" fill="#BD932E"/>
<path d="M165.585 65.5493C167.295 65.5493 168.68 64.159 168.68 62.444C168.68 60.7289 167.295 59.3386 165.585 59.3386C163.875 59.3386 162.489 60.7289 162.489 62.444C162.489 64.159 163.875 65.5493 165.585 65.5493Z" fill="#BD932E"/>
<path d="M157.48 73.291C159.19 73.291 160.576 71.9007 160.576 70.1857C160.576 68.4706 159.19 67.0803 157.48 67.0803C155.771 67.0803 154.385 68.4706 154.385 70.1857C154.385 71.9007 155.771 73.291 157.48 73.291Z" fill="#BD932E"/>
<path d="M165.585 82.1973C167.295 82.1973 168.68 80.807 168.68 79.0919C168.68 77.3769 167.295 75.9866 165.585 75.9866C163.875 75.9866 162.489 77.3769 162.489 79.0919C162.489 80.807 163.875 82.1973 165.585 82.1973Z" fill="#BD932E"/>
<path d="M157.48 89.9392C159.19 89.9392 160.576 88.5489 160.576 86.8339C160.576 85.1188 159.19 83.7285 157.48 83.7285C155.771 83.7285 154.385 85.1188 154.385 86.8339C154.385 88.5489 155.771 89.9392 157.48 89.9392Z" fill="#BD932E"/>
<path d="M165.585 98.824C167.295 98.824 168.68 97.4337 168.68 95.7186C168.68 94.0036 167.295 92.6133 165.585 92.6133C163.875 92.6133 162.489 94.0036 162.489 95.7186C162.489 97.4337 163.875 98.824 165.585 98.824Z" fill="#BD932E"/>
<path d="M157.48 106.566C159.19 106.566 160.576 105.175 160.576 103.46C160.576 101.745 159.19 100.355 157.48 100.355C155.771 100.355 154.385 101.745 154.385 103.46C154.385 105.175 155.771 106.566 157.48 106.566Z" fill="#BD932E"/>
<path d="M165.585 115.472C167.295 115.472 168.68 114.082 168.68 112.367C168.68 110.652 167.295 109.261 165.585 109.261C163.875 109.261 162.489 110.652 162.489 112.367C162.489 114.082 163.875 115.472 165.585 115.472Z" fill="#BD932E"/>
<path d="M157.48 123.192C159.19 123.192 160.576 121.802 160.576 120.087C160.576 118.372 159.19 116.982 157.48 116.982C155.771 116.982 154.385 118.372 154.385 120.087C154.385 121.802 155.771 123.192 157.48 123.192Z" fill="#BD932E"/>
<path d="M165.585 132.099C167.295 132.099 168.68 130.708 168.68 128.993C168.68 127.278 167.295 125.888 165.585 125.888C163.875 125.888 162.489 127.278 162.489 128.993C162.489 130.708 163.875 132.099 165.585 132.099Z" fill="#BD932E"/>
<path d="M157.48 139.84C159.19 139.84 160.576 138.45 160.576 136.735C160.576 135.02 159.19 133.63 157.48 133.63C155.771 133.63 154.385 135.02 154.385 136.735C154.385 138.45 155.771 139.84 157.48 139.84Z" fill="#BD932E"/>
<path d="M165.585 148.725C167.295 148.725 168.68 147.335 168.68 145.62C168.68 143.905 167.295 142.514 165.585 142.514C163.875 142.514 162.489 143.905 162.489 145.62C162.489 147.335 163.875 148.725 165.585 148.725Z" fill="#BD932E"/>
<path d="M157.48 156.467C159.19 156.467 160.576 155.077 160.576 153.362C160.576 151.647 159.19 150.256 157.48 150.256C155.771 150.256 154.385 151.647 154.385 153.362C154.385 155.077 155.771 156.467 157.48 156.467Z" fill="#BD932E"/>
<path d="M165.585 165.373C167.295 165.373 168.68 163.983 168.68 162.268C168.68 160.553 167.295 159.163 165.585 159.163C163.875 159.163 162.489 160.553 162.489 162.268C162.489 163.983 163.875 165.373 165.585 165.373Z" fill="#BD932E"/>
<path d="M157.48 173.115C159.19 173.115 160.576 171.725 160.576 170.01C160.576 168.295 159.19 166.905 157.48 166.905C155.771 166.905 154.385 168.295 154.385 170.01C154.385 171.725 155.771 173.115 157.48 173.115Z" fill="#BD932E"/>
<path d="M165.585 182C167.295 182 168.68 180.61 168.68 178.895C168.68 177.18 167.295 175.789 165.585 175.789C163.875 175.789 162.489 177.18 162.489 178.895C162.489 180.61 163.875 182 165.585 182Z" fill="#BD932E"/>
<path d="M140.906 6.7417C142.616 6.7417 144.002 5.35139 144.002 3.63635C144.002 1.92132 142.616 0.531006 140.906 0.531006C139.197 0.531006 137.811 1.92132 137.811 3.63635C137.811 5.35139 139.197 6.7417 140.906 6.7417Z" fill="#BD932E"/>
<path d="M149.011 15.648C150.72 15.648 152.106 14.2576 152.106 12.5426C152.106 10.8276 150.72 9.43726 149.011 9.43726C147.301 9.43726 145.915 10.8276 145.915 12.5426C145.915 14.2576 147.301 15.648 149.011 15.648Z" fill="#BD932E"/>
<path d="M140.906 23.3899C142.616 23.3899 144.002 21.9996 144.002 20.2845C144.002 18.5695 142.616 17.1792 140.906 17.1792C139.197 17.1792 137.811 18.5695 137.811 20.2845C137.811 21.9996 139.197 23.3899 140.906 23.3899Z" fill="#BD932E"/>
<path d="M149.011 32.2746C150.72 32.2746 152.106 30.8843 152.106 29.1693C152.106 27.4543 150.72 26.064 149.011 26.064C147.301 26.064 145.915 27.4543 145.915 29.1693C145.915 30.8843 147.301 32.2746 149.011 32.2746Z" fill="#BD932E"/>
<path d="M140.906 40.0164C142.616 40.0164 144.002 38.6261 144.002 36.911C144.002 35.196 142.616 33.8057 140.906 33.8057C139.197 33.8057 137.811 35.196 137.811 36.911C137.811 38.6261 139.197 40.0164 140.906 40.0164Z" fill="#BD932E"/>
<path d="M149.011 48.9226C150.72 48.9226 152.106 47.5323 152.106 45.8173C152.106 44.1022 150.72 42.7119 149.011 42.7119C147.301 42.7119 145.915 44.1022 145.915 45.8173C145.915 47.5323 147.301 48.9226 149.011 48.9226Z" fill="#BD932E"/>
<path d="M140.906 56.6646C142.616 56.6646 144.002 55.2742 144.002 53.5592C144.002 51.8442 142.616 50.4539 140.906 50.4539C139.197 50.4539 137.811 51.8442 137.811 53.5592C137.811 55.2742 139.197 56.6646 140.906 56.6646Z" fill="#BD932E"/>
<path d="M149.011 65.5493C150.72 65.5493 152.106 64.159 152.106 62.444C152.106 60.7289 150.72 59.3386 149.011 59.3386C147.301 59.3386 145.915 60.7289 145.915 62.444C145.915 64.159 147.301 65.5493 149.011 65.5493Z" fill="#BD932E"/>
<path d="M140.906 73.291C142.616 73.291 144.002 71.9007 144.002 70.1857C144.002 68.4706 142.616 67.0803 140.906 67.0803C139.197 67.0803 137.811 68.4706 137.811 70.1857C137.811 71.9007 139.197 73.291 140.906 73.291Z" fill="#BD932E"/>
<path d="M149.011 82.1973C150.72 82.1973 152.106 80.807 152.106 79.0919C152.106 77.3769 150.72 75.9866 149.011 75.9866C147.301 75.9866 145.915 77.3769 145.915 79.0919C145.915 80.807 147.301 82.1973 149.011 82.1973Z" fill="#BD932E"/>
<path d="M140.906 89.9392C142.616 89.9392 144.002 88.5489 144.002 86.8339C144.002 85.1188 142.616 83.7285 140.906 83.7285C139.197 83.7285 137.811 85.1188 137.811 86.8339C137.811 88.5489 139.197 89.9392 140.906 89.9392Z" fill="#BD932E"/>
<path d="M149.011 98.824C150.72 98.824 152.106 97.4337 152.106 95.7186C152.106 94.0036 150.72 92.6133 149.011 92.6133C147.301 92.6133 145.915 94.0036 145.915 95.7186C145.915 97.4337 147.301 98.824 149.011 98.824Z" fill="#BD932E"/>
<path d="M140.906 106.566C142.616 106.566 144.002 105.175 144.002 103.46C144.002 101.745 142.616 100.355 140.906 100.355C139.197 100.355 137.811 101.745 137.811 103.46C137.811 105.175 139.197 106.566 140.906 106.566Z" fill="#BD932E"/>
<path d="M149.011 115.472C150.72 115.472 152.106 114.082 152.106 112.367C152.106 110.652 150.72 109.261 149.011 109.261C147.301 109.261 145.915 110.652 145.915 112.367C145.915 114.082 147.301 115.472 149.011 115.472Z" fill="#BD932E"/>
<path d="M140.906 123.192C142.616 123.192 144.002 121.802 144.002 120.087C144.002 118.372 142.616 116.982 140.906 116.982C139.197 116.982 137.811 118.372 137.811 120.087C137.811 121.802 139.197 123.192 140.906 123.192Z" fill="#BD932E"/>
<path d="M149.011 132.099C150.72 132.099 152.106 130.708 152.106 128.993C152.106 127.278 150.72 125.888 149.011 125.888C147.301 125.888 145.915 127.278 145.915 128.993C145.915 130.708 147.301 132.099 149.011 132.099Z" fill="#BD932E"/>
<path d="M140.906 139.84C142.616 139.84 144.002 138.45 144.002 136.735C144.002 135.02 142.616 133.63 140.906 133.63C139.197 133.63 137.811 135.02 137.811 136.735C137.811 138.45 139.197 139.84 140.906 139.84Z" fill="#BD932E"/>
<path d="M149.011 148.725C150.72 148.725 152.106 147.335 152.106 145.62C152.106 143.905 150.72 142.514 149.011 142.514C147.301 142.514 145.915 143.905 145.915 145.62C145.915 147.335 147.301 148.725 149.011 148.725Z" fill="#BD932E"/>
<path d="M140.906 156.467C142.616 156.467 144.002 155.077 144.002 153.362C144.002 151.647 142.616 150.256 140.906 150.256C139.197 150.256 137.811 151.647 137.811 153.362C137.811 155.077 139.197 156.467 140.906 156.467Z" fill="#BD932E"/>
<path d="M149.011 165.373C150.72 165.373 152.106 163.983 152.106 162.268C152.106 160.553 150.72 159.163 149.011 159.163C147.301 159.163 145.915 160.553 145.915 162.268C145.915 163.983 147.301 165.373 149.011 165.373Z" fill="#BD932E"/>
<path d="M140.906 173.115C142.616 173.115 144.002 171.725 144.002 170.01C144.002 168.295 142.616 166.905 140.906 166.905C139.197 166.905 137.811 168.295 137.811 170.01C137.811 171.725 139.197 173.115 140.906 173.115Z" fill="#BD932E"/>
<path d="M149.011 182C150.72 182 152.106 180.61 152.106 178.895C152.106 177.18 150.72 175.789 149.011 175.789C147.301 175.789 145.915 177.18 145.915 178.895C145.915 180.61 147.301 182 149.011 182Z" fill="#BD932E"/>
<path d="M124.31 6.7417C126.02 6.7417 127.406 5.35139 127.406 3.63635C127.406 1.92132 126.02 0.531006 124.31 0.531006C122.601 0.531006 121.215 1.92132 121.215 3.63635C121.215 5.35139 122.601 6.7417 124.31 6.7417Z" fill="#BD932E"/>
<path d="M132.415 15.648C134.125 15.648 135.511 14.2576 135.511 12.5426C135.511 10.8276 134.125 9.43726 132.415 9.43726C130.705 9.43726 129.319 10.8276 129.319 12.5426C129.319 14.2576 130.705 15.648 132.415 15.648Z" fill="#BD932E"/>
<path d="M124.31 23.3899C126.02 23.3899 127.406 21.9996 127.406 20.2845C127.406 18.5695 126.02 17.1792 124.31 17.1792C122.601 17.1792 121.215 18.5695 121.215 20.2845C121.215 21.9996 122.601 23.3899 124.31 23.3899Z" fill="#BD932E"/>
<path d="M132.415 32.2746C134.125 32.2746 135.511 30.8843 135.511 29.1693C135.511 27.4543 134.125 26.064 132.415 26.064C130.705 26.064 129.319 27.4543 129.319 29.1693C129.319 30.8843 130.705 32.2746 132.415 32.2746Z" fill="#BD932E"/>
<path d="M124.31 40.0164C126.02 40.0164 127.406 38.6261 127.406 36.911C127.406 35.196 126.02 33.8057 124.31 33.8057C122.601 33.8057 121.215 35.196 121.215 36.911C121.215 38.6261 122.601 40.0164 124.31 40.0164Z" fill="#BD932E"/>
<path d="M132.415 48.9226C134.125 48.9226 135.511 47.5323 135.511 45.8173C135.511 44.1022 134.125 42.7119 132.415 42.7119C130.705 42.7119 129.319 44.1022 129.319 45.8173C129.319 47.5323 130.705 48.9226 132.415 48.9226Z" fill="#BD932E"/>
<path d="M124.31 56.6646C126.02 56.6646 127.406 55.2742 127.406 53.5592C127.406 51.8442 126.02 50.4539 124.31 50.4539C122.601 50.4539 121.215 51.8442 121.215 53.5592C121.215 55.2742 122.601 56.6646 124.31 56.6646Z" fill="#BD932E"/>
<path d="M132.415 65.5493C134.125 65.5493 135.511 64.159 135.511 62.444C135.511 60.7289 134.125 59.3386 132.415 59.3386C130.705 59.3386 129.319 60.7289 129.319 62.444C129.319 64.159 130.705 65.5493 132.415 65.5493Z" fill="#BD932E"/>
<path d="M124.31 73.291C126.02 73.291 127.406 71.9007 127.406 70.1857C127.406 68.4706 126.02 67.0803 124.31 67.0803C122.601 67.0803 121.215 68.4706 121.215 70.1857C121.215 71.9007 122.601 73.291 124.31 73.291Z" fill="#BD932E"/>
<path d="M132.415 82.1973C134.125 82.1973 135.511 80.807 135.511 79.0919C135.511 77.3769 134.125 75.9866 132.415 75.9866C130.705 75.9866 129.319 77.3769 129.319 79.0919C129.319 80.807 130.705 82.1973 132.415 82.1973Z" fill="#BD932E"/>
<path d="M124.31 89.9392C126.02 89.9392 127.406 88.5489 127.406 86.8339C127.406 85.1188 126.02 83.7285 124.31 83.7285C122.601 83.7285 121.215 85.1188 121.215 86.8339C121.215 88.5489 122.601 89.9392 124.31 89.9392Z" fill="#BD932E"/>
<path d="M132.415 98.824C134.125 98.824 135.511 97.4337 135.511 95.7186C135.511 94.0036 134.125 92.6133 132.415 92.6133C130.705 92.6133 129.319 94.0036 129.319 95.7186C129.319 97.4337 130.705 98.824 132.415 98.824Z" fill="#BD932E"/>
<path d="M124.31 106.566C126.02 106.566 127.406 105.175 127.406 103.46C127.406 101.745 126.02 100.355 124.31 100.355C122.601 100.355 121.215 101.745 121.215 103.46C121.215 105.175 122.601 106.566 124.31 106.566Z" fill="#BD932E"/>
<path d="M132.415 115.472C134.125 115.472 135.511 114.082 135.511 112.367C135.511 110.652 134.125 109.261 132.415 109.261C130.705 109.261 129.319 110.652 129.319 112.367C129.319 114.082 130.705 115.472 132.415 115.472Z" fill="#BD932E"/>
<path d="M124.31 123.192C126.02 123.192 127.406 121.802 127.406 120.087C127.406 118.372 126.02 116.982 124.31 116.982C122.601 116.982 121.215 118.372 121.215 120.087C121.215 121.802 122.601 123.192 124.31 123.192Z" fill="#BD932E"/>
<path d="M132.415 132.099C134.125 132.099 135.511 130.708 135.511 128.993C135.511 127.278 134.125 125.888 132.415 125.888C130.705 125.888 129.319 127.278 129.319 128.993C129.319 130.708 130.705 132.099 132.415 132.099Z" fill="#BD932E"/>
<path d="M124.31 139.84C126.02 139.84 127.406 138.45 127.406 136.735C127.406 135.02 126.02 133.63 124.31 133.63C122.601 133.63 121.215 135.02 121.215 136.735C121.215 138.45 122.601 139.84 124.31 139.84Z" fill="#BD932E"/>
<path d="M132.415 148.725C134.125 148.725 135.511 147.335 135.511 145.62C135.511 143.905 134.125 142.514 132.415 142.514C130.705 142.514 129.319 143.905 129.319 145.62C129.319 147.335 130.705 148.725 132.415 148.725Z" fill="#BD932E"/>
<path d="M124.31 156.467C126.02 156.467 127.406 155.077 127.406 153.362C127.406 151.647 126.02 150.256 124.31 150.256C122.601 150.256 121.215 151.647 121.215 153.362C121.215 155.077 122.601 156.467 124.31 156.467Z" fill="#BD932E"/>
<path d="M132.415 165.373C134.125 165.373 135.511 163.983 135.511 162.268C135.511 160.553 134.125 159.163 132.415 159.163C130.705 159.163 129.319 160.553 129.319 162.268C129.319 163.983 130.705 165.373 132.415 165.373Z" fill="#BD932E"/>
<path d="M124.31 173.115C126.02 173.115 127.406 171.725 127.406 170.01C127.406 168.295 126.02 166.905 124.31 166.905C122.601 166.905 121.215 168.295 121.215 170.01C121.215 171.725 122.601 173.115 124.31 173.115Z" fill="#BD932E"/>
<path d="M132.415 182C134.125 182 135.511 180.61 135.511 178.895C135.511 177.18 134.125 175.789 132.415 175.789C130.705 175.789 129.319 177.18 129.319 178.895C129.319 180.61 130.705 182 132.415 182Z" fill="#BD932E"/>
<path d="M107.736 6.7417C109.446 6.7417 110.832 5.35139 110.832 3.63635C110.832 1.92132 109.446 0.531006 107.736 0.531006C106.027 0.531006 104.641 1.92132 104.641 3.63635C104.641 5.35139 106.027 6.7417 107.736 6.7417Z" fill="#BD932E"/>
<path d="M115.841 15.648C117.55 15.648 118.936 14.2576 118.936 12.5426C118.936 10.8276 117.55 9.43726 115.841 9.43726C114.131 9.43726 112.745 10.8276 112.745 12.5426C112.745 14.2576 114.131 15.648 115.841 15.648Z" fill="#BD932E"/>
<path d="M107.736 23.3899C109.446 23.3899 110.832 21.9996 110.832 20.2845C110.832 18.5695 109.446 17.1792 107.736 17.1792C106.027 17.1792 104.641 18.5695 104.641 20.2845C104.641 21.9996 106.027 23.3899 107.736 23.3899Z" fill="#BD932E"/>
<path d="M115.841 32.2746C117.55 32.2746 118.936 30.8843 118.936 29.1693C118.936 27.4543 117.55 26.064 115.841 26.064C114.131 26.064 112.745 27.4543 112.745 29.1693C112.745 30.8843 114.131 32.2746 115.841 32.2746Z" fill="#BD932E"/>
<path d="M107.736 40.0164C109.446 40.0164 110.832 38.6261 110.832 36.911C110.832 35.196 109.446 33.8057 107.736 33.8057C106.027 33.8057 104.641 35.196 104.641 36.911C104.641 38.6261 106.027 40.0164 107.736 40.0164Z" fill="#BD932E"/>
<path d="M115.841 48.9226C117.55 48.9226 118.936 47.5323 118.936 45.8173C118.936 44.1022 117.55 42.7119 115.841 42.7119C114.131 42.7119 112.745 44.1022 112.745 45.8173C112.745 47.5323 114.131 48.9226 115.841 48.9226Z" fill="#BD932E"/>
<path d="M107.736 56.6646C109.446 56.6646 110.832 55.2742 110.832 53.5592C110.832 51.8442 109.446 50.4539 107.736 50.4539C106.027 50.4539 104.641 51.8442 104.641 53.5592C104.641 55.2742 106.027 56.6646 107.736 56.6646Z" fill="#BD932E"/>
<path d="M115.841 65.5493C117.55 65.5493 118.936 64.159 118.936 62.444C118.936 60.7289 117.55 59.3386 115.841 59.3386C114.131 59.3386 112.745 60.7289 112.745 62.444C112.745 64.159 114.131 65.5493 115.841 65.5493Z" fill="#BD932E"/>
<path d="M107.736 73.291C109.446 73.291 110.832 71.9007 110.832 70.1857C110.832 68.4706 109.446 67.0803 107.736 67.0803C106.027 67.0803 104.641 68.4706 104.641 70.1857C104.641 71.9007 106.027 73.291 107.736 73.291Z" fill="#BD932E"/>
<path d="M115.841 82.1973C117.55 82.1973 118.936 80.807 118.936 79.0919C118.936 77.3769 117.55 75.9866 115.841 75.9866C114.131 75.9866 112.745 77.3769 112.745 79.0919C112.745 80.807 114.131 82.1973 115.841 82.1973Z" fill="#BD932E"/>
<path d="M107.736 89.9392C109.446 89.9392 110.832 88.5489 110.832 86.8339C110.832 85.1188 109.446 83.7285 107.736 83.7285C106.027 83.7285 104.641 85.1188 104.641 86.8339C104.641 88.5489 106.027 89.9392 107.736 89.9392Z" fill="#BD932E"/>
<path d="M115.841 98.824C117.55 98.824 118.936 97.4337 118.936 95.7186C118.936 94.0036 117.55 92.6133 115.841 92.6133C114.131 92.6133 112.745 94.0036 112.745 95.7186C112.745 97.4337 114.131 98.824 115.841 98.824Z" fill="#BD932E"/>
<path d="M107.736 106.566C109.446 106.566 110.832 105.175 110.832 103.46C110.832 101.745 109.446 100.355 107.736 100.355C106.027 100.355 104.641 101.745 104.641 103.46C104.641 105.175 106.027 106.566 107.736 106.566Z" fill="#BD932E"/>
<path d="M115.841 115.472C117.55 115.472 118.936 114.082 118.936 112.367C118.936 110.652 117.55 109.261 115.841 109.261C114.131 109.261 112.745 110.652 112.745 112.367C112.745 114.082 114.131 115.472 115.841 115.472Z" fill="#BD932E"/>
<path d="M107.736 123.192C109.446 123.192 110.832 121.802 110.832 120.087C110.832 118.372 109.446 116.982 107.736 116.982C106.027 116.982 104.641 118.372 104.641 120.087C104.641 121.802 106.027 123.192 107.736 123.192Z" fill="#BD932E"/>
<path d="M115.841 132.099C117.55 132.099 118.936 130.708 118.936 128.993C118.936 127.278 117.55 125.888 115.841 125.888C114.131 125.888 112.745 127.278 112.745 128.993C112.745 130.708 114.131 132.099 115.841 132.099Z" fill="#BD932E"/>
<path d="M107.736 139.84C109.446 139.84 110.832 138.45 110.832 136.735C110.832 135.02 109.446 133.63 107.736 133.63C106.027 133.63 104.641 135.02 104.641 136.735C104.641 138.45 106.027 139.84 107.736 139.84Z" fill="#BD932E"/>
<path d="M115.841 148.725C117.55 148.725 118.936 147.335 118.936 145.62C118.936 143.905 117.55 142.514 115.841 142.514C114.131 142.514 112.745 143.905 112.745 145.62C112.745 147.335 114.131 148.725 115.841 148.725Z" fill="#BD932E"/>
<path d="M107.736 156.467C109.446 156.467 110.832 155.077 110.832 153.362C110.832 151.647 109.446 150.256 107.736 150.256C106.027 150.256 104.641 151.647 104.641 153.362C104.641 155.077 106.027 156.467 107.736 156.467Z" fill="#BD932E"/>
<path d="M115.841 165.373C117.55 165.373 118.936 163.983 118.936 162.268C118.936 160.553 117.55 159.163 115.841 159.163C114.131 159.163 112.745 160.553 112.745 162.268C112.745 163.983 114.131 165.373 115.841 165.373Z" fill="#BD932E"/>
<path d="M107.736 173.115C109.446 173.115 110.832 171.725 110.832 170.01C110.832 168.295 109.446 166.905 107.736 166.905C106.027 166.905 104.641 168.295 104.641 170.01C104.641 171.725 106.027 173.115 107.736 173.115Z" fill="#BD932E"/>
<path d="M115.841 182C117.55 182 118.936 180.61 118.936 178.895C118.936 177.18 117.55 175.789 115.841 175.789C114.131 175.789 112.745 177.18 112.745 178.895C112.745 180.61 114.131 182 115.841 182Z" fill="#BD932E"/>
<path d="M91.161 6.7417C92.8707 6.7417 94.2567 5.35139 94.2567 3.63635C94.2567 1.92132 92.8707 0.531006 91.161 0.531006C89.4514 0.531006 88.0654 1.92132 88.0654 3.63635C88.0654 5.35139 89.4514 6.7417 91.161 6.7417Z" fill="#BD932E"/>
<path d="M99.244 15.648C100.954 15.648 102.34 14.2576 102.34 12.5426C102.34 10.8276 100.954 9.43726 99.244 9.43726C97.5344 9.43726 96.1484 10.8276 96.1484 12.5426C96.1484 14.2576 97.5344 15.648 99.244 15.648Z" fill="#BD932E"/>
<path d="M91.161 23.3899C92.8707 23.3899 94.2567 21.9996 94.2567 20.2845C94.2567 18.5695 92.8707 17.1792 91.161 17.1792C89.4514 17.1792 88.0654 18.5695 88.0654 20.2845C88.0654 21.9996 89.4514 23.3899 91.161 23.3899Z" fill="#BD932E"/>
<path d="M99.244 32.2746C100.954 32.2746 102.34 30.8843 102.34 29.1693C102.34 27.4543 100.954 26.064 99.244 26.064C97.5344 26.064 96.1484 27.4543 96.1484 29.1693C96.1484 30.8843 97.5344 32.2746 99.244 32.2746Z" fill="#BD932E"/>
<path d="M91.161 40.0164C92.8707 40.0164 94.2567 38.6261 94.2567 36.911C94.2567 35.196 92.8707 33.8057 91.161 33.8057C89.4514 33.8057 88.0654 35.196 88.0654 36.911C88.0654 38.6261 89.4514 40.0164 91.161 40.0164Z" fill="#BD932E"/>
<path d="M99.244 48.9226C100.954 48.9226 102.34 47.5323 102.34 45.8173C102.34 44.1022 100.954 42.7119 99.244 42.7119C97.5344 42.7119 96.1484 44.1022 96.1484 45.8173C96.1484 47.5323 97.5344 48.9226 99.244 48.9226Z" fill="#BD932E"/>
<path d="M91.161 56.6646C92.8707 56.6646 94.2567 55.2742 94.2567 53.5592C94.2567 51.8442 92.8707 50.4539 91.161 50.4539C89.4514 50.4539 88.0654 51.8442 88.0654 53.5592C88.0654 55.2742 89.4514 56.6646 91.161 56.6646Z" fill="#BD932E"/>
<path d="M99.244 65.5493C100.954 65.5493 102.34 64.159 102.34 62.444C102.34 60.7289 100.954 59.3386 99.244 59.3386C97.5344 59.3386 96.1484 60.7289 96.1484 62.444C96.1484 64.159 97.5344 65.5493 99.244 65.5493Z" fill="#BD932E"/>
<path d="M91.161 73.291C92.8707 73.291 94.2567 71.9007 94.2567 70.1857C94.2567 68.4706 92.8707 67.0803 91.161 67.0803C89.4514 67.0803 88.0654 68.4706 88.0654 70.1857C88.0654 71.9007 89.4514 73.291 91.161 73.291Z" fill="#BD932E"/>
<path d="M99.244 82.1973C100.954 82.1973 102.34 80.807 102.34 79.0919C102.34 77.3769 100.954 75.9866 99.244 75.9866C97.5344 75.9866 96.1484 77.3769 96.1484 79.0919C96.1484 80.807 97.5344 82.1973 99.244 82.1973Z" fill="#BD932E"/>
<path d="M90.9246 90.241C92.563 90.241 93.8912 88.9086 93.8912 87.265C93.8912 85.6214 92.563 84.2891 90.9246 84.2891C89.2862 84.2891 87.958 85.6214 87.958 87.265C87.958 88.9086 89.2862 90.241 90.9246 90.241Z" fill="#BD932E"/>
<path d="M98.6854 98.8022C100.324 98.8022 101.652 97.4699 101.652 95.8263C101.652 94.1827 100.324 92.8503 98.6854 92.8503C97.047 92.8503 95.7188 94.1827 95.7188 95.8263C95.7188 97.4699 97.047 98.8022 98.6854 98.8022Z" fill="#BD932E"/>
<path d="M91.161 106.566C92.8707 106.566 94.2567 105.175 94.2567 103.46C94.2567 101.745 92.8707 100.355 91.161 100.355C89.4514 100.355 88.0654 101.745 88.0654 103.46C88.0654 105.175 89.4514 106.566 91.161 106.566Z" fill="#BD932E"/>
<path d="M99.244 115.472C100.954 115.472 102.34 114.082 102.34 112.367C102.34 110.652 100.954 109.261 99.244 109.261C97.5344 109.261 96.1484 110.652 96.1484 112.367C96.1484 114.082 97.5344 115.472 99.244 115.472Z" fill="#BD932E"/>
<path d="M91.161 123.192C92.8707 123.192 94.2567 121.802 94.2567 120.087C94.2567 118.372 92.8707 116.982 91.161 116.982C89.4514 116.982 88.0654 118.372 88.0654 120.087C88.0654 121.802 89.4514 123.192 91.161 123.192Z" fill="#BD932E"/>
<path d="M99.244 132.099C100.954 132.099 102.34 130.708 102.34 128.993C102.34 127.278 100.954 125.888 99.244 125.888C97.5344 125.888 96.1484 127.278 96.1484 128.993C96.1484 130.708 97.5344 132.099 99.244 132.099Z" fill="#BD932E"/>
<path d="M91.161 139.84C92.8707 139.84 94.2567 138.45 94.2567 136.735C94.2567 135.02 92.8707 133.63 91.161 133.63C89.4514 133.63 88.0654 135.02 88.0654 136.735C88.0654 138.45 89.4514 139.84 91.161 139.84Z" fill="#BD932E"/>
<path d="M99.244 148.725C100.954 148.725 102.34 147.335 102.34 145.62C102.34 143.905 100.954 142.514 99.244 142.514C97.5344 142.514 96.1484 143.905 96.1484 145.62C96.1484 147.335 97.5344 148.725 99.244 148.725Z" fill="#BD932E"/>
<path d="M91.161 156.467C92.8707 156.467 94.2567 155.077 94.2567 153.362C94.2567 151.647 92.8707 150.256 91.161 150.256C89.4514 150.256 88.0654 151.647 88.0654 153.362C88.0654 155.077 89.4514 156.467 91.161 156.467Z" fill="#BD932E"/>
<path d="M99.244 165.373C100.954 165.373 102.34 163.983 102.34 162.268C102.34 160.553 100.954 159.163 99.244 159.163C97.5344 159.163 96.1484 160.553 96.1484 162.268C96.1484 163.983 97.5344 165.373 99.244 165.373Z" fill="#BD932E"/>
<path d="M91.161 173.115C92.8707 173.115 94.2567 171.725 94.2567 170.01C94.2567 168.295 92.8707 166.905 91.161 166.905C89.4514 166.905 88.0654 168.295 88.0654 170.01C88.0654 171.725 89.4514 173.115 91.161 173.115Z" fill="#BD932E"/>
<path d="M99.244 182C100.954 182 102.34 180.61 102.34 178.895C102.34 177.18 100.954 175.789 99.244 175.789C97.5344 175.789 96.1484 177.18 96.1484 178.895C96.1484 180.61 97.5344 182 99.244 182Z" fill="#BD932E"/>
<path d="M74.5653 6.7417C76.275 6.7417 77.6609 5.35139 77.6609 3.63635C77.6609 1.92132 76.275 0.531006 74.5653 0.531006C72.8557 0.531006 71.4697 1.92132 71.4697 3.63635C71.4697 5.35139 72.8557 6.7417 74.5653 6.7417Z" fill="#BD932E"/>
<path d="M82.6698 15.648C84.3795 15.648 85.7654 14.2576 85.7654 12.5426C85.7654 10.8276 84.3795 9.43726 82.6698 9.43726C80.9602 9.43726 79.5742 10.8276 79.5742 12.5426C79.5742 14.2576 80.9602 15.648 82.6698 15.648Z" fill="#BD932E"/>
<path d="M74.5653 23.3899C76.275 23.3899 77.6609 21.9996 77.6609 20.2845C77.6609 18.5695 76.275 17.1792 74.5653 17.1792C72.8557 17.1792 71.4697 18.5695 71.4697 20.2845C71.4697 21.9996 72.8557 23.3899 74.5653 23.3899Z" fill="#BD932E"/>
<path d="M82.6698 32.2746C84.3795 32.2746 85.7654 30.8843 85.7654 29.1693C85.7654 27.4543 84.3795 26.064 82.6698 26.064C80.9602 26.064 79.5742 27.4543 79.5742 29.1693C79.5742 30.8843 80.9602 32.2746 82.6698 32.2746Z" fill="#BD932E"/>
<path d="M74.5653 40.0164C76.275 40.0164 77.6609 38.6261 77.6609 36.911C77.6609 35.196 76.275 33.8057 74.5653 33.8057C72.8557 33.8057 71.4697 35.196 71.4697 36.911C71.4697 38.6261 72.8557 40.0164 74.5653 40.0164Z" fill="#BD932E"/>
<path d="M82.6698 48.9226C84.3795 48.9226 85.7654 47.5323 85.7654 45.8173C85.7654 44.1022 84.3795 42.7119 82.6698 42.7119C80.9602 42.7119 79.5742 44.1022 79.5742 45.8173C79.5742 47.5323 80.9602 48.9226 82.6698 48.9226Z" fill="#BD932E"/>
<path d="M74.5653 56.6646C76.275 56.6646 77.6609 55.2742 77.6609 53.5592C77.6609 51.8442 76.275 50.4539 74.5653 50.4539C72.8557 50.4539 71.4697 51.8442 71.4697 53.5592C71.4697 55.2742 72.8557 56.6646 74.5653 56.6646Z" fill="#BD932E"/>
<path d="M82.6698 65.5493C84.3795 65.5493 85.7654 64.159 85.7654 62.444C85.7654 60.7289 84.3795 59.3386 82.6698 59.3386C80.9602 59.3386 79.5742 60.7289 79.5742 62.444C79.5742 64.159 80.9602 65.5493 82.6698 65.5493Z" fill="#BD932E"/>
<path d="M74.5653 73.291C76.275 73.291 77.6609 71.9007 77.6609 70.1857C77.6609 68.4706 76.275 67.0803 74.5653 67.0803C72.8557 67.0803 71.4697 68.4706 71.4697 70.1857C71.4697 71.9007 72.8557 73.291 74.5653 73.291Z" fill="#BD932E"/>
<path d="M82.6698 82.1973C84.3795 82.1973 85.7654 80.807 85.7654 79.0919C85.7654 77.3769 84.3795 75.9866 82.6698 75.9866C80.9602 75.9866 79.5742 77.3769 79.5742 79.0919C79.5742 80.807 80.9602 82.1973 82.6698 82.1973Z" fill="#BD932E"/>
<path d="M74.5653 89.9392C76.275 89.9392 77.6609 88.5489 77.6609 86.8339C77.6609 85.1188 76.275 83.7285 74.5653 83.7285C72.8557 83.7285 71.4697 85.1188 71.4697 86.8339C71.4697 88.5489 72.8557 89.9392 74.5653 89.9392Z" fill="#BD932E"/>
<path d="M82.6698 98.824C84.3795 98.824 85.7654 97.4337 85.7654 95.7186C85.7654 94.0036 84.3795 92.6133 82.6698 92.6133C80.9602 92.6133 79.5742 94.0036 79.5742 95.7186C79.5742 97.4337 80.9602 98.824 82.6698 98.824Z" fill="#BD932E"/>
<path d="M74.5653 106.566C76.275 106.566 77.6609 105.175 77.6609 103.46C77.6609 101.745 76.275 100.355 74.5653 100.355C72.8557 100.355 71.4697 101.745 71.4697 103.46C71.4697 105.175 72.8557 106.566 74.5653 106.566Z" fill="#BD932E"/>
<path d="M82.6698 115.472C84.3795 115.472 85.7654 114.082 85.7654 112.367C85.7654 110.652 84.3795 109.261 82.6698 109.261C80.9602 109.261 79.5742 110.652 79.5742 112.367C79.5742 114.082 80.9602 115.472 82.6698 115.472Z" fill="#BD932E"/>
<path d="M74.5653 123.192C76.275 123.192 77.6609 121.802 77.6609 120.087C77.6609 118.372 76.275 116.982 74.5653 116.982C72.8557 116.982 71.4697 118.372 71.4697 120.087C71.4697 121.802 72.8557 123.192 74.5653 123.192Z" fill="#BD932E"/>
<path d="M82.6698 132.099C84.3795 132.099 85.7654 130.708 85.7654 128.993C85.7654 127.278 84.3795 125.888 82.6698 125.888C80.9602 125.888 79.5742 127.278 79.5742 128.993C79.5742 130.708 80.9602 132.099 82.6698 132.099Z" fill="#BD932E"/>
<path d="M74.5653 139.84C76.275 139.84 77.6609 138.45 77.6609 136.735C77.6609 135.02 76.275 133.63 74.5653 133.63C72.8557 133.63 71.4697 135.02 71.4697 136.735C71.4697 138.45 72.8557 139.84 74.5653 139.84Z" fill="#BD932E"/>
<path d="M82.6698 148.725C84.3795 148.725 85.7654 147.335 85.7654 145.62C85.7654 143.905 84.3795 142.514 82.6698 142.514C80.9602 142.514 79.5742 143.905 79.5742 145.62C79.5742 147.335 80.9602 148.725 82.6698 148.725Z" fill="#BD932E"/>
<path d="M74.5653 156.467C76.275 156.467 77.6609 155.077 77.6609 153.362C77.6609 151.647 76.275 150.256 74.5653 150.256C72.8557 150.256 71.4697 151.647 71.4697 153.362C71.4697 155.077 72.8557 156.467 74.5653 156.467Z" fill="#BD932E"/>
<path d="M82.6698 165.373C84.3795 165.373 85.7654 163.983 85.7654 162.268C85.7654 160.553 84.3795 159.163 82.6698 159.163C80.9602 159.163 79.5742 160.553 79.5742 162.268C79.5742 163.983 80.9602 165.373 82.6698 165.373Z" fill="#BD932E"/>
<path d="M74.5653 173.115C76.275 173.115 77.6609 171.725 77.6609 170.01C77.6609 168.295 76.275 166.905 74.5653 166.905C72.8557 166.905 71.4697 168.295 71.4697 170.01C71.4697 171.725 72.8557 173.115 74.5653 173.115Z" fill="#BD932E"/>
<path d="M82.6698 182C84.3795 182 85.7654 180.61 85.7654 178.895C85.7654 177.18 84.3795 175.789 82.6698 175.789C80.9602 175.789 79.5742 177.18 79.5742 178.895C79.5742 180.61 80.9602 182 82.6698 182Z" fill="#BD932E"/>
<path d="M57.9911 6.7417C59.7008 6.7417 61.0867 5.35139 61.0867 3.63635C61.0867 1.92132 59.7008 0.531006 57.9911 0.531006C56.2815 0.531006 54.8955 1.92132 54.8955 3.63635C54.8955 5.35139 56.2815 6.7417 57.9911 6.7417Z" fill="#BD932E"/>
<path d="M66.0741 15.648C67.7838 15.648 69.1697 14.2576 69.1697 12.5426C69.1697 10.8276 67.7838 9.43726 66.0741 9.43726C64.3645 9.43726 62.9785 10.8276 62.9785 12.5426C62.9785 14.2576 64.3645 15.648 66.0741 15.648Z" fill="#BD932E"/>
<path d="M41.4384 6.7417C43.148 6.7417 44.534 5.35139 44.534 3.63635C44.534 1.92132 43.148 0.531006 41.4384 0.531006C39.7287 0.531006 38.3428 1.92132 38.3428 3.63635C38.3428 5.35139 39.7287 6.7417 41.4384 6.7417Z" fill="#BD932E"/>
<path d="M49.5214 15.648C51.231 15.648 52.617 14.2576 52.617 12.5426C52.617 10.8276 51.231 9.43726 49.5214 9.43726C47.8117 9.43726 46.4258 10.8276 46.4258 12.5426C46.4258 14.2576 47.8117 15.648 49.5214 15.648Z" fill="#BD932E"/>
<path d="M57.9911 23.3899C59.7008 23.3899 61.0867 21.9996 61.0867 20.2845C61.0867 18.5695 59.7008 17.1792 57.9911 17.1792C56.2815 17.1792 54.8955 18.5695 54.8955 20.2845C54.8955 21.9996 56.2815 23.3899 57.9911 23.3899Z" fill="#BD932E"/>
<path d="M66.0741 32.2746C67.7838 32.2746 69.1697 30.8843 69.1697 29.1693C69.1697 27.4543 67.7838 26.064 66.0741 26.064C64.3645 26.064 62.9785 27.4543 62.9785 29.1693C62.9785 30.8843 64.3645 32.2746 66.0741 32.2746Z" fill="#BD932E"/>
<path d="M57.9911 40.0164C59.7008 40.0164 61.0867 38.6261 61.0867 36.911C61.0867 35.196 59.7008 33.8057 57.9911 33.8057C56.2815 33.8057 54.8955 35.196 54.8955 36.911C54.8955 38.6261 56.2815 40.0164 57.9911 40.0164Z" fill="#BD932E"/>
<path d="M66.0741 48.9226C67.7838 48.9226 69.1697 47.5323 69.1697 45.8173C69.1697 44.1022 67.7838 42.7119 66.0741 42.7119C64.3645 42.7119 62.9785 44.1022 62.9785 45.8173C62.9785 47.5323 64.3645 48.9226 66.0741 48.9226Z" fill="#BD932E"/>
<path d="M57.9911 56.6646C59.7008 56.6646 61.0867 55.2742 61.0867 53.5592C61.0867 51.8442 59.7008 50.4539 57.9911 50.4539C56.2815 50.4539 54.8955 51.8442 54.8955 53.5592C54.8955 55.2742 56.2815 56.6646 57.9911 56.6646Z" fill="#BD932E"/>
<path d="M66.0741 65.5493C67.7838 65.5493 69.1697 64.159 69.1697 62.444C69.1697 60.7289 67.7838 59.3386 66.0741 59.3386C64.3645 59.3386 62.9785 60.7289 62.9785 62.444C62.9785 64.159 64.3645 65.5493 66.0741 65.5493Z" fill="#BD932E"/>
<path d="M57.9911 73.291C59.7008 73.291 61.0867 71.9007 61.0867 70.1857C61.0867 68.4706 59.7008 67.0803 57.9911 67.0803C56.2815 67.0803 54.8955 68.4706 54.8955 70.1857C54.8955 71.9007 56.2815 73.291 57.9911 73.291Z" fill="#BD932E"/>
<path d="M66.0741 82.1973C67.7838 82.1973 69.1697 80.807 69.1697 79.0919C69.1697 77.3769 67.7838 75.9866 66.0741 75.9866C64.3645 75.9866 62.9785 77.3769 62.9785 79.0919C62.9785 80.807 64.3645 82.1973 66.0741 82.1973Z" fill="#BD932E"/>
<path d="M57.9911 89.9392C59.7008 89.9392 61.0867 88.5489 61.0867 86.8339C61.0867 85.1188 59.7008 83.7285 57.9911 83.7285C56.2815 83.7285 54.8955 85.1188 54.8955 86.8339C54.8955 88.5489 56.2815 89.9392 57.9911 89.9392Z" fill="#BD932E"/>
<path d="M66.0741 98.824C67.7838 98.824 69.1697 97.4337 69.1697 95.7186C69.1697 94.0036 67.7838 92.6133 66.0741 92.6133C64.3645 92.6133 62.9785 94.0036 62.9785 95.7186C62.9785 97.4337 64.3645 98.824 66.0741 98.824Z" fill="#BD932E"/>
<path d="M57.9911 106.566C59.7008 106.566 61.0867 105.175 61.0867 103.46C61.0867 101.745 59.7008 100.355 57.9911 100.355C56.2815 100.355 54.8955 101.745 54.8955 103.46C54.8955 105.175 56.2815 106.566 57.9911 106.566Z" fill="#BD932E"/>
<path d="M66.0741 115.472C67.7838 115.472 69.1697 114.082 69.1697 112.367C69.1697 110.652 67.7838 109.261 66.0741 109.261C64.3645 109.261 62.9785 110.652 62.9785 112.367C62.9785 114.082 64.3645 115.472 66.0741 115.472Z" fill="#BD932E"/>
<path d="M57.9911 123.192C59.7008 123.192 61.0867 121.802 61.0867 120.087C61.0867 118.372 59.7008 116.982 57.9911 116.982C56.2815 116.982 54.8955 118.372 54.8955 120.087C54.8955 121.802 56.2815 123.192 57.9911 123.192Z" fill="#BD932E"/>
<path d="M66.0741 132.099C67.7838 132.099 69.1697 130.708 69.1697 128.993C69.1697 127.278 67.7838 125.888 66.0741 125.888C64.3645 125.888 62.9785 127.278 62.9785 128.993C62.9785 130.708 64.3645 132.099 66.0741 132.099Z" fill="#BD932E"/>
<path d="M57.9911 139.84C59.7008 139.84 61.0867 138.45 61.0867 136.735C61.0867 135.02 59.7008 133.63 57.9911 133.63C56.2815 133.63 54.8955 135.02 54.8955 136.735C54.8955 138.45 56.2815 139.84 57.9911 139.84Z" fill="#BD932E"/>
<path d="M66.0741 148.725C67.7838 148.725 69.1697 147.335 69.1697 145.62C69.1697 143.905 67.7838 142.514 66.0741 142.514C64.3645 142.514 62.9785 143.905 62.9785 145.62C62.9785 147.335 64.3645 148.725 66.0741 148.725Z" fill="#BD932E"/>
<path d="M57.9911 156.467C59.7008 156.467 61.0867 155.077 61.0867 153.362C61.0867 151.647 59.7008 150.256 57.9911 150.256C56.2815 150.256 54.8955 151.647 54.8955 153.362C54.8955 155.077 56.2815 156.467 57.9911 156.467Z" fill="#BD932E"/>
<path d="M66.0741 165.373C67.7838 165.373 69.1697 163.983 69.1697 162.268C69.1697 160.553 67.7838 159.163 66.0741 159.163C64.3645 159.163 62.9785 160.553 62.9785 162.268C62.9785 163.983 64.3645 165.373 66.0741 165.373Z" fill="#BD932E"/>
<path d="M57.9911 173.115C59.7008 173.115 61.0867 171.725 61.0867 170.01C61.0867 168.295 59.7008 166.905 57.9911 166.905C56.2815 166.905 54.8955 168.295 54.8955 170.01C54.8955 171.725 56.2815 173.115 57.9911 173.115Z" fill="#BD932E"/>
<path d="M66.0741 182C67.7838 182 69.1697 180.61 69.1697 178.895C69.1697 177.18 67.7838 175.789 66.0741 175.789C64.3645 175.789 62.9785 177.18 62.9785 178.895C62.9785 180.61 64.3645 182 66.0741 182Z" fill="#BD932E"/>
<path d="M41.3954 23.3899C43.1051 23.3899 44.491 21.9996 44.491 20.2845C44.491 18.5695 43.1051 17.1792 41.3954 17.1792C39.6858 17.1792 38.2998 18.5695 38.2998 20.2845C38.2998 21.9996 39.6858 23.3899 41.3954 23.3899Z" fill="#BD932E"/>
<path d="M49.4999 32.2746C51.2096 32.2746 52.5955 30.8843 52.5955 29.1693C52.5955 27.4543 51.2096 26.064 49.4999 26.064C47.7902 26.064 46.4043 27.4543 46.4043 29.1693C46.4043 30.8843 47.7902 32.2746 49.4999 32.2746Z" fill="#BD932E"/>
<path d="M41.3954 40.0164C43.1051 40.0164 44.491 38.6261 44.491 36.911C44.491 35.196 43.1051 33.8057 41.3954 33.8057C39.6858 33.8057 38.2998 35.196 38.2998 36.911C38.2998 38.6261 39.6858 40.0164 41.3954 40.0164Z" fill="#BD932E"/>
<path d="M49.4999 48.9226C51.2096 48.9226 52.5955 47.5323 52.5955 45.8173C52.5955 44.1022 51.2096 42.7119 49.4999 42.7119C47.7902 42.7119 46.4043 44.1022 46.4043 45.8173C46.4043 47.5323 47.7902 48.9226 49.4999 48.9226Z" fill="#BD932E"/>
<path d="M41.3954 56.6646C43.1051 56.6646 44.491 55.2742 44.491 53.5592C44.491 51.8442 43.1051 50.4539 41.3954 50.4539C39.6858 50.4539 38.2998 51.8442 38.2998 53.5592C38.2998 55.2742 39.6858 56.6646 41.3954 56.6646Z" fill="#BD932E"/>
<path d="M49.4999 65.5493C51.2096 65.5493 52.5955 64.159 52.5955 62.444C52.5955 60.7289 51.2096 59.3386 49.4999 59.3386C47.7902 59.3386 46.4043 60.7289 46.4043 62.444C46.4043 64.159 47.7902 65.5493 49.4999 65.5493Z" fill="#BD932E"/>
<path d="M41.3954 73.291C43.1051 73.291 44.491 71.9007 44.491 70.1857C44.491 68.4706 43.1051 67.0803 41.3954 67.0803C39.6858 67.0803 38.2998 68.4706 38.2998 70.1857C38.2998 71.9007 39.6858 73.291 41.3954 73.291Z" fill="#BD932E"/>
<path d="M49.4999 82.1973C51.2096 82.1973 52.5955 80.807 52.5955 79.0919C52.5955 77.3769 51.2096 75.9866 49.4999 75.9866C47.7902 75.9866 46.4043 77.3769 46.4043 79.0919C46.4043 80.807 47.7902 82.1973 49.4999 82.1973Z" fill="#BD932E"/>
<path d="M41.3954 89.9392C43.1051 89.9392 44.491 88.5489 44.491 86.8339C44.491 85.1188 43.1051 83.7285 41.3954 83.7285C39.6858 83.7285 38.2998 85.1188 38.2998 86.8339C38.2998 88.5489 39.6858 89.9392 41.3954 89.9392Z" fill="#BD932E"/>
<path d="M49.4999 98.824C51.2096 98.824 52.5955 97.4337 52.5955 95.7186C52.5955 94.0036 51.2096 92.6133 49.4999 92.6133C47.7902 92.6133 46.4043 94.0036 46.4043 95.7186C46.4043 97.4337 47.7902 98.824 49.4999 98.824Z" fill="#BD932E"/>
<path d="M41.3954 106.566C43.1051 106.566 44.491 105.175 44.491 103.46C44.491 101.745 43.1051 100.355 41.3954 100.355C39.6858 100.355 38.2998 101.745 38.2998 103.46C38.2998 105.175 39.6858 106.566 41.3954 106.566Z" fill="#BD932E"/>
<path d="M49.4999 115.472C51.2096 115.472 52.5955 114.082 52.5955 112.367C52.5955 110.652 51.2096 109.261 49.4999 109.261C47.7902 109.261 46.4043 110.652 46.4043 112.367C46.4043 114.082 47.7902 115.472 49.4999 115.472Z" fill="#BD932E"/>
<path d="M41.3954 123.192C43.1051 123.192 44.491 121.802 44.491 120.087C44.491 118.372 43.1051 116.982 41.3954 116.982C39.6858 116.982 38.2998 118.372 38.2998 120.087C38.2998 121.802 39.6858 123.192 41.3954 123.192Z" fill="#BD932E"/>
<path d="M49.4999 132.099C51.2096 132.099 52.5955 130.708 52.5955 128.993C52.5955 127.278 51.2096 125.888 49.4999 125.888C47.7902 125.888 46.4043 127.278 46.4043 128.993C46.4043 130.708 47.7902 132.099 49.4999 132.099Z" fill="#BD932E"/>
<path d="M41.3954 139.84C43.1051 139.84 44.491 138.45 44.491 136.735C44.491 135.02 43.1051 133.63 41.3954 133.63C39.6858 133.63 38.2998 135.02 38.2998 136.735C38.2998 138.45 39.6858 139.84 41.3954 139.84Z" fill="#BD932E"/>
<path d="M49.4999 148.725C51.2096 148.725 52.5955 147.335 52.5955 145.62C52.5955 143.905 51.2096 142.514 49.4999 142.514C47.7902 142.514 46.4043 143.905 46.4043 145.62C46.4043 147.335 47.7902 148.725 49.4999 148.725Z" fill="#BD932E"/>
<path d="M41.3954 156.467C43.1051 156.467 44.491 155.077 44.491 153.362C44.491 151.647 43.1051 150.256 41.3954 150.256C39.6858 150.256 38.2998 151.647 38.2998 153.362C38.2998 155.077 39.6858 156.467 41.3954 156.467Z" fill="#BD932E"/>
<path d="M49.4999 165.373C51.2096 165.373 52.5955 163.983 52.5955 162.268C52.5955 160.553 51.2096 159.163 49.4999 159.163C47.7902 159.163 46.4043 160.553 46.4043 162.268C46.4043 163.983 47.7902 165.373 49.4999 165.373Z" fill="#BD932E"/>
<path d="M41.3954 173.115C43.1051 173.115 44.491 171.725 44.491 170.01C44.491 168.295 43.1051 166.905 41.3954 166.905C39.6858 166.905 38.2998 168.295 38.2998 170.01C38.2998 171.725 39.6858 173.115 41.3954 173.115Z" fill="#BD932E"/>
<path d="M49.4999 182C51.2096 182 52.5955 180.61 52.5955 178.895C52.5955 177.18 51.2096 175.789 49.4999 175.789C47.7902 175.789 46.4043 177.18 46.4043 178.895C46.4043 180.61 47.7902 182 49.4999 182Z" fill="#BD932E"/>
<g clip-path="url(#clip0)">
<path d="M1.5 110.1V210.9L88.8 261.3L176.1 210.9V110.1L88.8 59.7L1.5 110.1Z" stroke="#52C396" stroke-width="5" stroke-miterlimit="10"/>
</g>
<defs>
<clipPath id="clip0">
<rect width="177.6" height="205" fill="white" transform="translate(0 58)"/>
</clipPath>
</defs>
</svg>
